<?xml version="1.0" encoding="UTF-8" standalone="no"?>
<svg width="413px" height="153px" viewBox="0 0 413 153" version="1.1" xmlns="http://www.w3.org/2000/svg" xmlns:xlink="http://www.w3.org/1999/xlink" xmlns:sketch="http://www.bohemiancoding.com/sketch/ns">
    <title>logo</title>
    <description>Created with Sketch (http://www.bohemiancoding.com/sketch)</description>
    <defs></defs>
    <g id="Page 1" stroke="none" stroke-width="1" fill="none" fill-rule="evenodd" stroke-linecap="round">
        <path d="M369.792969,23.9414062 C173.585884,72.8828134 195,-21.9999986 12.015625,26.109375" id="Path 1" stroke="#86A2D2" stroke-width="24"></path>
        <path id="Path 1 decoration-1" d="M369.02167,24.1333348 C365.587325,26.0570445 362.6479,27.6876356 359.183546,29.5775036 C358.71064,27.531444 358.305292,25.7776785 357.832387,23.7316188 C361.74744,23.8930114 365.092593,24.0161525 369.02167,24.1333348 C369.02167,24.1333348 369.02167,24.1333348 369.02167,24.1333348 Z M369.02167,24.1333348" stroke="#86A2D2" stroke-width="24"></path>
        <path d="M369.792969,74.9414062 C173.585884,123.882813 195,29.0000014 12.015625,77.109375" id="Path 1 copy" stroke="#86A2D2" stroke-width="24"></path>
        <path id="Path 1 copy decoration-1" d="M369.02167,75.1333348 C365.587325,77.0570445 362.6479,78.6876356 359.183546,80.5775036 C358.71064,78.531444 358.305292,76.7776785 357.832387,74.7316188 C361.74744,74.8930114 365.092593,75.0161525 369.02167,75.1333348 C369.02167,75.1333348 369.02167,75.1333348 369.02167,75.1333348 Z M369.02167,75.1333348" stroke="#86A2D2" stroke-width="24"></path>
        <path d="M369.792969,125.941406 C173.585884,174.882813 195,80.0000014 12.015625,128.109375" id="Path 1 copy 2" stroke="#86A2D2" stroke-width="24"></path>
        <path id="Path 1 copy 2 decoration-1" d="M369.02167,126.133335 C365.587325,128.057045 362.6479,129.687636 359.183546,131.577504 C358.71064,129.531444 358.305292,127.777679 357.832387,125.731619 C361.74744,125.893011 365.092593,126.016153 369.02167,126.133335 C369.02167,126.133335 369.02167,126.133335 369.02167,126.133335 Z M369.02167,126.133335" stroke="#86A2D2" stroke-width="24"></path>
    </g>
</svg>